<?xml version="1.0" encoding="UTF-8" standalone="no" ?>
<!DOCTYPE svg PUBLIC "-//W3C//DTD SVG 1.1//EN" "http://www.w3.org/Graphics/SVG/1.1/DTD/svg11.dtd">
<svg xmlns="http://www.w3.org/2000/svg" xmlns:xlink="http://www.w3.org/1999/xlink" version="1.1" width="1080" height="1080" viewBox="0 0 1080 1080" xml:space="preserve">
<desc>Created with Fabric.js 5.2.4</desc>
<defs>
</defs>
<g transform="matrix(1 0 0 1 540 540)" id="9de24dbc-cae5-4dde-92e9-318c6f0617b6"  >
<rect style="stroke: none; stroke-width: 1; stroke-dasharray: none; stroke-linecap: butt; stroke-dashoffset: 0; stroke-linejoin: miter; stroke-miterlimit: 4; fill: rgb(255,255,255); fill-rule: nonzero; opacity: 1; visibility: hidden;" vector-effect="non-scaling-stroke"  x="-540" y="-540" rx="0" ry="0" width="1080" height="1080" />
</g>
<g transform="matrix(1 0 0 1 540 540)" id="306fc666-b2d7-41a8-82dc-ec6891540ac5"  >
</g>
<g transform="matrix(0.67 -0.67 0.67 0.67 523.42 541)" id="56a280e6-4ab3-4739-8383-64619846f560"  >
<path style="stroke: rgb(0,0,0); stroke-width: 2; stroke-dasharray: none; stroke-linecap: butt; stroke-dashoffset: 0; stroke-linejoin: miter; stroke-miterlimit: 4; fill: rgb(15,242,19); fill-rule: nonzero; opacity: 1;" vector-effect="non-scaling-stroke"  transform=" translate(-256.04, -256.08)" d="M 505 41 C 514.4 31.6 514.4 16.4 505 7.100000000000001 C 495.6 -2.1999999999999957 480.4 -2.299999999999999 471.1 7.100000000000001 L 383 95 C 373.6 104.4 373.6 119.6 383 128.9 C 392.4 138.20000000000002 407.6 138.3 416.9 128.9 L 504.9 40.900000000000006 z M 305.5 27.3 C 299.3 21.1 289.1 21.1 282.9 27.3 L 271.5 38.6 C 234 76.1 234 136.9 271.5 174.4 L 281.9 184.8 L 251.39999999999998 215.3 C 247.99999999999997 188 235.89999999999998 161.5 214.89999999999998 140.5 L 203.59999999999997 129.2 C 197.39999999999998 122.99999999999999 187.19999999999996 122.99999999999999 180.99999999999997 129.2 L 169.69999999999996 140.5 C 132.19999999999996 178 132.19999999999996 238.8 169.69999999999996 276.3 L 180.09999999999997 286.7 L 149.59999999999997 317.2 C 146.19999999999996 289.9 134.09999999999997 263.4 113.09999999999997 242.39999999999998 L 101.8 231 C 95.6 224.8 85.4 224.8 79.19999999999999 231 L 67.9 242.3 C 30.400000000000006 279.8 30.400000000000006 340.6 67.9 378.1 L 78.30000000000001 388.5 L 9.4 457.4 C -3.0999999999999996 469.9 -3.0999999999999996 490.2 9.4 502.7 C 21.9 515.2 42.199999999999996 515.2 54.699999999999996 502.7 L 123.6 433.79999999999995 L 135.79999999999998 445.99999999999994 C 173.29999999999998 483.49999999999994 234.09999999999997 483.49999999999994 271.6 445.99999999999994 L 282.90000000000003 434.69999999999993 C 289.1 428.49999999999994 289.1 418.29999999999995 282.90000000000003 412.0999999999999 L 271.6 400.7999999999999 C 249.8 378.9999999999999 222.00000000000003 366.6999999999999 193.50000000000003 363.8999999999999 L 225.40000000000003 331.99999999999994 L 237.60000000000002 344.19999999999993 C 275.1 381.69999999999993 335.90000000000003 381.69999999999993 373.40000000000003 344.19999999999993 L 384.70000000000005 332.8999999999999 C 390.90000000000003 326.69999999999993 390.90000000000003 316.49999999999994 384.70000000000005 310.2999999999999 L 373.40000000000003 298.9999999999999 C 351.6 277.1999999999999 323.8 264.89999999999986 295.30000000000007 262.0999999999999 L 327.20000000000005 230.1999999999999 L 339.40000000000003 242.3999999999999 C 376.90000000000003 279.89999999999986 437.70000000000005 279.89999999999986 475.20000000000005 242.3999999999999 L 486.5 231 C 492.7 224.8 492.7 214.6 486.5 208.4 L 475.2 197 C 470 191.8 464.59999999999997 187.2 458.8 183.1 L 505 137 C 514.4 127.6 514.4 112.4 505 103.1 C 495.6 93.79999999999998 480.4 93.69999999999999 471.1 103.1 L 411.70000000000005 162.5 C 391.1 158.1 369.70000000000005 158.8 349.40000000000003 164.6 C 355.50000000000006 143.29999999999998 356.00000000000006 120.8 350.8 99.3 L 409 41 C 418.4 31.6 418.4 16.4 409 7.100000000000001 C 399.6 -2.1999999999999957 384.4 -2.299999999999999 375.1 7.100000000000001 L 329.1 52.9 C 325.40000000000003 47.9 321.3 43.099999999999994 316.70000000000005 38.599999999999994 L 305.5 27.3 z" stroke-linecap="round" />
</g>
</svg>