<?xml version="1.0" standalone="no"?>
<!DOCTYPE svg PUBLIC "-//W3C//DTD SVG 20010904//EN"
 "http://www.w3.org/TR/2001/REC-SVG-20010904/DTD/svg10.dtd">
<svg version="1.0" xmlns="http://www.w3.org/2000/svg"
 width="752.000000pt" height="752.000000pt" viewBox="0 0 752.000000 752.000000"
 preserveAspectRatio="xMidYMid meet">

<g transform="translate(0.000000,752.000000) scale(0.100000,-0.100000)"
fill="#000000" stroke="none">
<path d="M3693 5648 c-330 -300 -2045 -1893 -2053 -1908 -8 -14 -8 -26 0 -40
10 -19 21 -20 233 -20 160 0 226 -3 235 -12 9 -9 12 -224 12 -905 l0 -894 25
-24 24 -25 1596 0 1596 0 24 25 25 24 0 894 c0 681 3 896 12 905 9 9 75 12
235 12 223 0 224 0 232 23 5 12 5 30 0 39 -7 13 -1748 1630 -2052 1906 -29 26
-56 42 -72 42 -16 0 -43 -16 -72 -42z m-565 -1800 l-3 -143 -140 0 -140 0 -3
129 c-1 72 0 136 2 143 4 10 40 13 146 13 l141 0 -3 -142z m337 -3 l0 -140
-142 -3 -143 -3 0 146 0 146 143 -3 142 -3 0 -140z m-335 -330 l0 -145 -139 0
c-117 0 -140 2 -145 16 -8 21 -8 259 1 267 3 4 69 7 145 7 l138 0 0 -145z
m338 20 c4 -180 17 -165 -148 -165 l-140 0 0 145 0 146 143 -3 142 -3 3 -120z
m1350 -890 c1 -335 0 -620 -3 -633 l-5 -22 -368 2 -367 3 -3 633 -2 632 372
-2 373 -3 3 -610z"/>
<path d="M4171 2716 c-19 -23 -10 -176 11 -189 12 -8 21 -7 32 2 20 17 23 170
4 189 -16 16 -33 15 -47 -2z"/>
<path d="M4756 5449 l-26 -20 0 -242 0 -241 55 -52 c153 -145 387 -359 396
-362 5 -2 16 2 24 8 13 11 15 76 15 437 0 446 -2 470 -45 487 -9 3 -101 6
-204 6 -175 0 -190 -1 -215 -21z"/>
</g>
</svg>
